<?xml version="1.0" encoding="utf-8"?>
<!-- Generator: Adobe Illustrator 24.3.0, SVG Export Plug-In . SVG Version: 6.00 Build 0)  -->
<svg version="1.1" id="Layer_1" xmlns="http://www.w3.org/2000/svg" xmlns:xlink="http://www.w3.org/1999/xlink" x="0px" y="0px"
	 viewBox="0 0 325.07 87.2" style="enable-background:new 0 0 325.07 87.2;" xml:space="preserve">
<style type="text/css">
	.st0{fill:#FF5A43;}
	.st1{fill:#333333;}
	.st2{fill:#FFFFFF;}
	.st3{opacity:0.1;}
	.st4{fill:#FFCBB4;}
	.st5{fill:#FFF9E6;}
	.st6{fill:#B61422;}
	.st7{fill:#9F1A23;}
	.st8{fill:#9E111F;}
</style>
<path class="st0" d="M79.64,87.2H7.56C3.38,87.2,0,83.82,0,79.64V7.56C0,3.38,3.38,0,7.56,0h72.08c4.17,0,7.56,3.38,7.56,7.56v72.08
	C87.2,83.82,83.82,87.2,79.64,87.2z"/>
<path d="M106.43,38.84c0-12.8,8.02-20.41,17.92-20.41c4.9,0,8.8,2.34,11.27,4.95l-3.71,4.47c-2.01-2.01-4.35-3.4-7.42-3.4
	c-6.36,0-10.93,5.38-10.93,14.16c0,8.92,4.21,14.33,10.77,14.33c3.47,0,6.15-1.6,8.35-4.02l3.71,4.35
	c-3.17,3.68-7.25,5.69-12.32,5.69C114.23,58.98,106.43,51.78,106.43,38.84z"/>
<path d="M139.8,43.6c0-9.79,6.65-15.43,13.97-15.43s13.97,5.65,13.97,15.43c0,9.74-6.65,15.38-13.97,15.38S139.8,53.34,139.8,43.6z
	 M160.66,43.6c0-5.89-2.58-9.81-6.89-9.81s-6.89,3.92-6.89,9.81c0,5.88,2.58,9.76,6.89,9.76S160.66,49.49,160.66,43.6z"/>
<path d="M172.18,43.6c0-9.57,6.01-15.43,12.44-15.43c3.33,0,5.43,1.24,7.7,3.23l-0.26-4.74V16.01h6.89v42.25h-5.65l-0.53-3.18h-0.19
	c-2.18,2.18-5.19,3.9-8.35,3.9C176.92,58.98,172.18,53.29,172.18,43.6z M192.06,49.99V36.3c-2.01-1.79-4-2.44-5.98-2.44
	c-3.73,0-6.82,3.54-6.82,9.67c0,6.39,2.44,9.76,6.68,9.76C188.21,53.29,190.12,52.29,192.06,49.99z"/>
<path d="M206.32,19.84c0-2.32,1.82-3.9,4.26-3.9s4.26,1.58,4.26,3.9c0,2.27-1.82,3.9-4.26,3.9S206.32,22.12,206.32,19.84z
	 M207.1,28.89h6.9v29.38h-6.89L207.1,28.89L207.1,28.89z"/>
<path d="M222.18,28.89h5.65l0.53,3.97h0.19c2.63-2.56,5.62-4.69,9.64-4.69c6.29,0,9.04,4.26,9.04,11.68v18.42h-6.89V40.73
	c0-4.83-1.39-6.65-4.57-6.65c-2.58,0-4.28,1.27-6.7,3.66v20.53h-6.89L222.18,28.89L222.18,28.89z"/>
<path d="M253.06,63.6c0-2.48,1.53-4.64,4.24-6.27V57.1c-1.51-0.98-2.66-2.54-2.66-4.91c0-2.27,1.56-4.28,3.25-5.48v-0.24
	c-2.01-1.48-3.88-4.28-3.88-7.75c0-6.75,5.46-10.55,11.6-10.55c1.63,0,3.16,0.29,4.35,0.72h10.5v5.12h-5.36
	c0.96,1.1,1.67,2.92,1.67,4.93c0,6.53-4.95,10.03-11.17,10.03c-1.24,0-2.66-0.26-3.97-0.78c-0.88,0.75-1.44,1.5-1.44,2.81
	c0,1.65,1.2,2.66,4.76,2.66h5.23c7.02,0,10.75,2.18,10.75,7.25c0,5.79-6.08,10.36-15.67,10.36
	C258.28,71.26,253.06,68.75,253.06,63.6z M274.31,62.02c0-2.27-1.82-2.94-5.18-2.94h-4.03c-1.58,0-2.85-0.12-3.97-0.41
	c-1.58,1.2-2.27,2.51-2.27,3.88c0,2.68,2.87,4.24,7.49,4.24C271.08,66.78,274.31,64.56,274.31,62.02z M270.72,38.72
	c0-3.68-2.22-5.79-5.1-5.79s-5.1,2.08-5.1,5.79c0,3.73,2.27,5.91,5.1,5.91S270.72,42.45,270.72,38.72z"/>
<path d="M282.92,50.37c0-6.29,5.22-9.57,17.27-10.86c-0.1-3.16-1.36-5.79-5.33-5.79c-2.92,0-5.67,1.32-8.25,2.9l-2.54-4.59
	c3.23-2.03,7.39-3.85,12.06-3.85c7.34,0,10.96,4.52,10.96,12.7v17.39h-5.65l-0.53-3.25h-0.19c-2.63,2.25-5.65,3.97-9.12,3.97
	C286.46,58.98,282.92,55.49,282.92,50.37z M300.19,50.4v-6.6c-7.97,1-10.62,3.09-10.62,6.05c0,2.6,1.77,3.73,4.23,3.73
	C296.19,53.58,298.01,52.4,300.19,50.4z"/>
<path d="M314.76,50.71v-34.7h6.89v35.05c0,1.7,0.77,2.3,1.48,2.3c0.31,0,0.55,0,1.08-0.12l0.86,5.14c-0.84,0.34-1.99,0.6-3.64,0.6
	C316.55,58.98,314.76,55.83,314.76,50.71z"/>
<g>
	<g>
		<ellipse class="st1" cx="37.42" cy="31.1" rx="4.94" ry="5.19"/>
		<path class="st1" d="M46.72,38.64c0,0-0.48,0.06-1.89,0.06c-1.41,0-1.96-0.06-1.96-0.06c-0.43-0.03-0.69-0.16-0.44-0.28l1.93-0.85
			c0.21-0.09,0.66-0.09,0.87,0l1.92,0.85C47.42,38.48,47.17,38.6,46.72,38.64z"/>
		<path class="st1" d="M47.15,39.68l-1.92,2.13c-0.22,0.24-0.66,0.24-0.87,0l-1.93-2.13c-0.26-0.29,0-0.69,0.44-0.69
			c0,0,0.61,0.13,1.96,0.13c1.35,0,1.89-0.13,1.89-0.13C47.16,38.99,47.42,39.39,47.15,39.68z"/>
		<path class="st1" d="M56.52,31.1c0,2.87-2.21,5.19-4.94,5.19s-4.94-2.32-4.94-5.19s2.21-5.19,4.94-5.19
			C54.3,25.91,56.52,28.23,56.52,31.1z"/>
		<path class="st1" d="M60.45,60.28c0,9.11-7,16.5-15.62,16.5c-8.63,0-15.63-7.39-15.63-16.5s7-16.49,15.63-16.49
			C53.45,43.79,60.45,51.17,60.45,60.28z"/>
		<path class="st2" d="M60.45,60.28c0,9.11-7,16.5-15.62,16.5c-8.63,0-15.63-7.39-15.63-16.5s7-16.49,15.63-16.49
			C53.45,43.79,60.45,51.17,60.45,60.28z"/>
		<path class="st1" d="M73.3,57.02c-3.59-2.83-6.57-6.39-8.72-10.46c-0.24-0.44-0.46-0.87-0.66-1.32c-0.01-0.02-0.03-0.03-0.04-0.05
			c-0.04-0.07-0.08-0.13-0.11-0.2c-2.33-5.9-2.78-10.48-2.87-12.42c0.02-0.33,0.03-0.66,0.03-1c0-8.9-7.21-16.11-16.1-16.11
			c-8.9,0-16.11,7.21-16.11,16.11c0,0,0.22,5.66-2.99,13.66c-0.29,0.55-0.57,1.12-0.82,1.7c-0.01,0.01-0.01,0.01-0.01,0.01
			c-2.14,3.91-5.05,7.33-8.53,10.08c-0.48,0.39-0.15,1.18,0.47,1.09c2.11-0.3,4.15-0.81,6.11-1.49c0.05,9.28,5.28,17.26,12.8,20.88
			c-0.66,0.72-1.07,1.69-1.07,2.75c0,0,0,0,0,0.01h8.2c0-0.01,0-0.01,0-0.01c0-0.27-0.03-0.52-0.08-0.78
			c0.66,0.07,1.35,0.1,2.03,0.1c0.64,0,1.27-0.03,1.89-0.09c-0.05,0.25-0.08,0.5-0.08,0.77c0,0,0,0,0,0.01h8.2c0-0.01,0-0.01,0-0.01
			c0-1.04-0.38-1.99-1.03-2.72c7.57-3.6,12.84-11.61,12.89-20.94c1.97,0.69,4.03,1.21,6.14,1.51C73.46,58.2,73.79,57.41,73.3,57.02z
			 M51.58,25.91c2.73,0,4.94,2.32,4.94,5.19s-2.21,5.19-4.94,5.19s-4.94-2.32-4.94-5.19S48.85,25.91,51.58,25.91z M44.36,37.51
			c0.21-0.09,0.66-0.09,0.87,0l1.92,0.85c0.27,0.11,0.02,0.24-0.44,0.28c0,0-0.48,0.06-1.89,0.06c-1.41,0-1.96-0.06-1.96-0.06
			c-0.43-0.03-0.69-0.16-0.44-0.28L44.36,37.51z M47.15,39.68l-1.92,2.13c-0.22,0.24-0.66,0.24-0.87,0l-1.93-2.13
			c-0.26-0.29,0-0.69,0.44-0.69c0,0,0.61,0.13,1.96,0.13c1.35,0,1.89-0.13,1.89-0.13C47.16,38.99,47.42,39.39,47.15,39.68z
			 M37.42,25.91c2.73,0,4.94,2.32,4.94,5.19s-2.21,5.19-4.94,5.19s-4.94-2.32-4.94-5.19S34.69,25.91,37.42,25.91z M44.83,76.77
			c-8.63,0-15.63-7.39-15.63-16.5s7-16.49,15.63-16.49c8.62,0,15.62,7.38,15.62,16.49S53.45,76.77,44.83,76.77z"/>
		<path class="st2" d="M56.52,31.1c0,2.87-2.21,5.19-4.94,5.19s-4.94-2.32-4.94-5.19s2.21-5.19,4.94-5.19
			C54.3,25.91,56.52,28.23,56.52,31.1z"/>
		<ellipse class="st1" cx="51.58" cy="31.1" rx="2.13" ry="2.23"/>
		<ellipse class="st2" cx="37.42" cy="31.1" rx="4.94" ry="5.19"/>
		<ellipse class="st1" cx="37.42" cy="31.1" rx="2.13" ry="2.23"/>
		<path class="st2" d="M46.72,38.64c0,0-0.48,0.06-1.89,0.06c-1.41,0-1.96-0.06-1.96-0.06c-0.43-0.03-0.69-0.16-0.44-0.28l1.93-0.85
			c0.21-0.09,0.66-0.09,0.87,0l1.92,0.85C47.42,38.48,47.17,38.6,46.72,38.64z"/>
		<path class="st2" d="M47.15,39.68l-1.92,2.13c-0.22,0.24-0.66,0.24-0.87,0l-1.93-2.13c-0.26-0.29,0-0.69,0.44-0.69
			c0,0,0.61,0.13,1.96,0.13c1.35,0,1.89-0.13,1.89-0.13C47.16,38.99,47.42,39.39,47.15,39.68z"/>
	</g>
	<g>
		<ellipse class="st3" cx="22.53" cy="16.48" rx="5.59" ry="4.86"/>
		<ellipse class="st4" cx="23.17" cy="15.61" rx="5.59" ry="4.86"/>
		<ellipse class="st5" cx="23.47" cy="14.77" rx="4.79" ry="4.04"/>
		<path class="st6" d="M28.84,19.14c0.03-0.21,0.06-0.44,0.07-0.69c0.06-1-4.28-3.37-4.28-3.37c-0.13-0.46,0.07-2.62,7.44-6.12
			c0.23-0.11,0.47-0.22,0.72-0.33c8.07-3.69,18.76-0.69,21.83,2.38c3.07,3.07,5.19,7.69,5.19,7.69l-31.21,1.5
			C28.6,20.21,28.74,19.78,28.84,19.14z"/>
		<path class="st7" d="M28.73,17.97c0,0,4.28-5.3,11.12-4.29l2.94,2.67l-9.25,2.28l-4.93,1.57C28.6,20.21,29.12,18.71,28.73,17.97z"
			/>
		<path class="st8" d="M27.68,14.35c1.92,1.02,2.5,1.14,2.53,2.29c0.02,0.68-0.74,1.74-1.37,2.5c0.03-1.44-3.75-3.5-3.75-3.5
			c-1.66-1.01-0.38-3.18,6.98-6.68l-0.63,0.54C31.45,9.51,25.76,13.33,27.68,14.35z"/>
		<path class="st5" d="M61.03,28.4c0,0-0.3,0.3-1.04-0.87c-0.36-0.57-1.05-1.66-2.04-2.83c-1.03-1.22-2.39-2.52-4.02-3.4
			c-2.74-1.47-14.52-5.94-22.4,5.04c-2.13,2.97-2.23,3.75-2.83,3.44c0,0-4.11-5.28,1.08-10.95c0.53-0.58,1.18-1.14,1.92-1.66
			c6.46-4.55,20.08-6.37,28.19,1.01C59.91,18.19,66.01,24.89,61.03,28.4z"/>
		<path class="st4" d="M57.96,24.7c-1.03-1.22-2.39-2.52-4.02-3.4c-2.74-1.47-14.52-5.94-22.4,5.04c-2.13,2.97-2.23,3.75-2.83,3.44
			c0,0-4.11-5.28,1.08-10.95c0.53-0.58,1.18-1.14,1.92-1.66c-0.76,1.88-2,5.5,0.37,4.47C35.22,20.28,51.28,13.39,57.96,24.7z"/>
	</g>
	<path class="st8" d="M28.87,18.93"/>
</g>
</svg>
